HIERARCHY
ROOT newVegas:Hips
{
	OFFSET 0.000000 96.479958 0.000000
	CHANNELS 6 Xposition Yposition Zposition Xrotation Yrotation Zrotation
	JOINT newVegas:Pelvis
	{
		OFFSET 0.000000 0.000000 0.000000
		CHANNELS 3 Xrotation Yrotation Zrotation
		JOINT newVegas:LeftUpLeg
		{
			OFFSET 18.735201 -5.666702 -4.541200
			CHANNELS 3 Xrotation Yrotation Zrotation
			JOINT newVegas:LeftLeg
			{
				OFFSET -0.021200 -31.938179 0.493100
				CHANNELS 3 Xrotation Yrotation Zrotation
				JOINT newVegas:LeftFoot
				{
					OFFSET 0.021200 -31.938179 -4.336299
					CHANNELS 3 Xrotation Yrotation Zrotation
					JOINT newVegas:LeftToeBase
					{
						OFFSET 0.943001 -26.722000 15.023500
						CHANNELS 3 Xrotation Yrotation Zrotation
						End Site
						{
							OFFSET 0.000000 30.670183 0.000000
						}
					}
				}
				JOINT newVegas:Left_PantLeg
				{
					OFFSET 0.663870 -9.044666 -1.108900
					CHANNELS 3 Xrotation Yrotation Zrotation
					End Site
					{
						OFFSET 1.415995 20.635357 0.000000
					}
				}
			}
		}
		JOINT newVegas:RightUpLeg
		{
			OFFSET -18.735201 -5.666702 -4.541200
			CHANNELS 3 Xrotation Yrotation Zrotation
			JOINT newVegas:RightLeg
			{
				OFFSET 0.018946 -31.938133 0.493100
				CHANNELS 3 Xrotation Yrotation Zrotation
				JOINT newVegas:RightFoot
				{
					OFFSET -0.018946 -31.938126 -4.336299
					CHANNELS 3 Xrotation Yrotation Zrotation
					JOINT newVegas:RightToeBase
					{
						OFFSET -0.943001 -26.722004 15.023500
						CHANNELS 3 Xrotation Yrotation Zrotation
						End Site
						{
							OFFSET 0.000000 30.670187 0.000000
						}
					}
				}
				JOINT newVegas:Right_PantLeg
				{
					OFFSET -0.661674 -9.044716 -1.108900
					CHANNELS 3 Xrotation Yrotation Zrotation
					End Site
					{
						OFFSET -1.415958 20.635269 0.000000
					}
				}
			}
		}
	}
	JOINT newVegas:Spine
	{
		OFFSET 0.000000 10.199997 -0.299500
		CHANNELS 3 Xrotation Yrotation Zrotation
		JOINT newVegas:Spine1
		{
			OFFSET 0.000000 11.900002 -1.516600
			CHANNELS 3 Xrotation Yrotation Zrotation
			JOINT newVegas:Spine2
			{
				OFFSET 0.000000 13.600006 -2.842500
				CHANNELS 3 Xrotation Yrotation Zrotation
				JOINT newVegas:Neck
				{
					OFFSET 0.000000 9.624100 -2.890100
					CHANNELS 3 Xrotation Yrotation Zrotation
					JOINT newVegas:Head
					{
						OFFSET 0.000000 14.068802 -1.351900
						CHANNELS 3 Xrotation Yrotation Zrotation
						JOINT newVegas:Hair_Back
						{
							OFFSET 0.000000 3.231903 -17.524799
							CHANNELS 3 Xrotation Yrotation Zrotation
							End Site
							{
								OFFSET 0.000000 19.849884 0.000000
							}
						}
						JOINT newVegas:Hair_Front
						{
							OFFSET 0.000000 31.260406 4.573800
							CHANNELS 3 Xrotation Yrotation Zrotation
							JOINT newVegas:Hair_Front1
							{
								OFFSET 0.000000 2.284103 11.993300
								CHANNELS 3 Xrotation Yrotation Zrotation
								JOINT newVegas:Hair_Front2
								{
									OFFSET 0.000000 2.284103 11.993300
									CHANNELS 3 Xrotation Yrotation Zrotation
									End Site
									{
										OFFSET 0.000000 12.208862 0.000000
									}
								}
							}
						}
						JOINT newVegas:Jowel
						{
							OFFSET 0.000000 -7.458206 6.864100
							CHANNELS 3 Xrotation Yrotation Zrotation
							End Site
							{
								OFFSET 0.000000 19.849884 0.000000
							}
						}
					}
				}
				JOINT newVegas:LeftShoulder
				{
					OFFSET 15.263000 10.923401 -0.547700
					CHANNELS 3 Xrotation Yrotation Zrotation
					JOINT newVegas:LeftArm
					{
						OFFSET 25.438599 -2.830597 -13.032500
						CHANNELS 3 Xrotation Yrotation Zrotation
						JOINT newVegas:LeftForeArm
						{
							OFFSET 29.960503 0.000000 0.000000
							CHANNELS 3 Xrotation Yrotation Zrotation
							JOINT newVegas:LeftHand
							{
								OFFSET 27.849251 0.000000 0.000000
								CHANNELS 3 Xrotation Yrotation Zrotation
								JOINT newVegas:LeftHandThumb1
								{
									OFFSET 4.487587 -3.305161 6.305391
									CHANNELS 3 Xrotation Yrotation Zrotation
									JOINT newVegas:LeftHandThumb2
									{
										OFFSET 5.480453 -3.164139 3.164143
										CHANNELS 3 Xrotation Yrotation Zrotation
										JOINT newVegas:LeftHandThumb3
										{
											OFFSET 5.159721 -2.978973 2.978967
											CHANNELS 3 Xrotation Yrotation Zrotation
											End Site
											{
												OFFSET 2.494507 5.926697 1.738678
											}
										}
									}
								}
								JOINT newVegas:LeftHandIndex1
								{
									OFFSET 18.578728 -0.527832 5.208049
									CHANNELS 3 Xrotation Yrotation Zrotation
									JOINT newVegas:LeftHandIndex2
									{
										OFFSET 3.192009 0.000000 0.000000
										CHANNELS 3 Xrotation Yrotation Zrotation
										JOINT newVegas:LeftHandIndex3
										{
											OFFSET 3.835129 0.000000 0.000000
											CHANNELS 3 Xrotation Yrotation Zrotation
											End Site
											{
												OFFSET -0.034599 3.816971 0.371180
											}
										}
									}
								}
								JOINT newVegas:LeftHandMiddle1
								{
									OFFSET 18.476105 0.000000 0.000000
									CHANNELS 3 Xrotation Yrotation Zrotation
									JOINT newVegas:LeftHandMiddle2
									{
										OFFSET 3.324875 0.000000 0.000000
										CHANNELS 3 Xrotation Yrotation Zrotation
										JOINT newVegas:LeftHandMiddle3
										{
											OFFSET 4.596550 0.000000 0.000000
											CHANNELS 3 Xrotation Yrotation Zrotation
											End Site
											{
												OFFSET 0.057701 4.578827 0.399218
											}
										}
									}
								}
								JOINT newVegas:LeftHandRing1
								{
									OFFSET 17.732719 0.121887 -4.201567
									CHANNELS 3 Xrotation Yrotation Zrotation
									JOINT newVegas:LeftHandRing2
									{
										OFFSET 2.733170 0.000000 0.000000
										CHANNELS 3 Xrotation Yrotation Zrotation
										JOINT newVegas:LeftHandRing3
										{
											OFFSET 3.178268 0.000000 0.000000
											CHANNELS 3 Xrotation Yrotation Zrotation
											End Site
											{
												OFFSET 0.119102 3.170624 0.185394
											}
										}
									}
								}
								JOINT newVegas:LeftHandPinky1
								{
									OFFSET 15.989624 -0.606689 -7.535461
									CHANNELS 3 Xrotation Yrotation Zrotation
									JOINT newVegas:LeftHandPinky2
									{
										OFFSET 2.538986 0.000000 0.000000
										CHANNELS 3 Xrotation Yrotation Zrotation
										JOINT newVegas:LeftHandPinky3
										{
											OFFSET 2.593102 0.000000 0.000000
											CHANNELS 3 Xrotation Yrotation Zrotation
											End Site
											{
												OFFSET -0.150902 2.584198 0.152708
											}
										}
									}
								}
							}
							JOINT newVegas:Left_Sleeve
							{
								OFFSET 0.267448 -0.649796 0.577675
								CHANNELS 3 Xrotation Yrotation Zrotation
								End Site
								{
									OFFSET 0.000000 15.991241 0.000000
								}
							}
							JOINT newVegas:Left_CapeC
							{
								OFFSET 15.715958 -8.608795 -6.935905
								CHANNELS 3 Xrotation Yrotation Zrotation
								JOINT newVegas:Left_CapeC1
								{
									OFFSET 0.000000 -8.688499 0.000000
									CHANNELS 3 Xrotation Yrotation Zrotation
									End Site
									{
										OFFSET 0.000000 8.688499 0.000000
									}
								}
							}
						}
						JOINT newVegas:Left_CapeB
						{
							OFFSET 26.118385 -8.608795 -7.079235
							CHANNELS 3 Xrotation Yrotation Zrotation
							JOINT newVegas:Left_CapeB1
							{
								OFFSET 0.000000 -8.688499 0.000000
								CHANNELS 3 Xrotation Yrotation Zrotation
								End Site
								{
									OFFSET 0.000000 8.688499 0.000000
								}
							}
						}
						JOINT newVegas:Left_CapeA
						{
							OFFSET 5.115639 -8.608795 -10.395809
							CHANNELS 3 Xrotation Yrotation Zrotation
							JOINT newVegas:Left_CapeA1
							{
								OFFSET 0.000000 -8.688499 0.000000
								CHANNELS 3 Xrotation Yrotation Zrotation
								End Site
								{
									OFFSET 0.000000 8.688499 0.000000
								}
							}
						}
					}
				}
				JOINT newVegas:RightShoulder
				{
					OFFSET -15.263000 10.923401 -0.547700
					CHANNELS 3 Xrotation Yrotation Zrotation
					JOINT newVegas:RightArm
					{
						OFFSET -25.438599 -2.830597 -13.032500
						CHANNELS 3 Xrotation Yrotation Zrotation
						JOINT newVegas:RightForeArm
						{
							OFFSET -29.960503 0.000000 0.000000
							CHANNELS 3 Xrotation Yrotation Zrotation
							JOINT newVegas:RightHand
							{
								OFFSET -27.849251 0.000000 0.000000
								CHANNELS 3 Xrotation Yrotation Zrotation
								JOINT newVegas:RightHandThumb1
								{
									OFFSET -4.487587 -3.305161 6.305391
									CHANNELS 3 Xrotation Yrotation Zrotation
									JOINT newVegas:RightHandThumb2
									{
										OFFSET -5.480453 -3.164139 3.164143
										CHANNELS 3 Xrotation Yrotation Zrotation
										JOINT newVegas:RightHandThumb3
										{
											OFFSET -5.159721 -2.978973 2.978967
											CHANNELS 3 Xrotation Yrotation Zrotation
											End Site
											{
												OFFSET -2.494507 5.926697 1.738678
											}
										}
									}
								}
								JOINT newVegas:RightHandIndex1
								{
									OFFSET -18.578728 -0.527832 5.208049
									CHANNELS 3 Xrotation Yrotation Zrotation
									JOINT newVegas:RightHandIndex2
									{
										OFFSET -3.192009 0.000000 0.000000
										CHANNELS 3 Xrotation Yrotation Zrotation
										JOINT newVegas:RightHandIndex3
										{
											OFFSET -3.835129 0.000000 0.000000
											CHANNELS 3 Xrotation Yrotation Zrotation
											End Site
											{
												OFFSET 0.034599 3.816971 0.371180
											}
										}
									}
								}
								JOINT newVegas:RightHandMiddle1
								{
									OFFSET -18.476105 0.000000 0.000000
									CHANNELS 3 Xrotation Yrotation Zrotation
									JOINT newVegas:RightHandMiddle2
									{
										OFFSET -3.324875 0.000000 0.000000
										CHANNELS 3 Xrotation Yrotation Zrotation
										JOINT newVegas:RightHandMiddle3
										{
											OFFSET -4.596550 0.000000 0.000000
											CHANNELS 3 Xrotation Yrotation Zrotation
											End Site
											{
												OFFSET -0.057701 4.578827 0.399218
											}
										}
									}
								}
								JOINT newVegas:RightHandRing1
								{
									OFFSET -17.732719 0.121887 -4.201567
									CHANNELS 3 Xrotation Yrotation Zrotation
									JOINT newVegas:RightHandRing2
									{
										OFFSET -2.733170 0.000000 0.000000
										CHANNELS 3 Xrotation Yrotation Zrotation
										JOINT newVegas:RightHandRing3
										{
											OFFSET -3.178268 0.000000 0.000000
											CHANNELS 3 Xrotation Yrotation Zrotation
											End Site
											{
												OFFSET -0.119102 3.170624 0.185394
											}
										}
									}
								}
								JOINT newVegas:RightHandPinky1
								{
									OFFSET -15.989624 -0.606689 -7.535461
									CHANNELS 3 Xrotation Yrotation Zrotation
									JOINT newVegas:RightHandPinky2
									{
										OFFSET -2.538986 0.000000 0.000000
										CHANNELS 3 Xrotation Yrotation Zrotation
										JOINT newVegas:RightHandPinky3
										{
											OFFSET -2.593102 0.000000 0.000000
											CHANNELS 3 Xrotation Yrotation Zrotation
											End Site
											{
												OFFSET 0.150902 2.584198 0.152708
											}
										}
									}
								}
							}
							JOINT newVegas:Right_CapeC
							{
								OFFSET -15.715958 -8.608795 -6.935905
								CHANNELS 3 Xrotation Yrotation Zrotation
								JOINT newVegas:Right_CapeC1
								{
									OFFSET 0.000000 -8.688499 0.000000
									CHANNELS 3 Xrotation Yrotation Zrotation
									End Site
									{
										OFFSET 0.000000 8.688499 0.000000
									}
								}
							}
							JOINT newVegas:Right_Sleeve
							{
								OFFSET -0.267448 -0.649994 0.577675
								CHANNELS 3 Xrotation Yrotation Zrotation
								End Site
								{
									OFFSET 0.000000 15.991302 0.000000
								}
							}
						}
						JOINT newVegas:Right_CapeA
						{
							OFFSET -5.115540 -8.608795 -10.395824
							CHANNELS 3 Xrotation Yrotation Zrotation
							JOINT newVegas:Right_CapeA1
							{
								OFFSET 0.000000 -8.688499 0.000000
								CHANNELS 3 Xrotation Yrotation Zrotation
								End Site
								{
									OFFSET 0.000000 8.688499 0.000000
								}
							}
						}
						JOINT newVegas:Right_CapeB
						{
							OFFSET -26.118187 -8.608795 -7.079266
							CHANNELS 3 Xrotation Yrotation Zrotation
							JOINT newVegas:Right_CapeB1
							{
								OFFSET 0.000000 -8.688499 0.000000
								CHANNELS 3 Xrotation Yrotation Zrotation
								End Site
								{
									OFFSET 0.000000 8.688499 0.000000
								}
							}
						}
					}
				}
				JOINT newVegas:Left_Collar
				{
					OFFSET 18.625099 8.655502 8.828100
					CHANNELS 3 Xrotation Yrotation Zrotation
					JOINT newVegas:Left_Collar1
					{
						OFFSET 14.783401 10.540405 -1.259500
						CHANNELS 3 Xrotation Yrotation Zrotation
						End Site
						{
							OFFSET 0.000000 18.199875 0.000000
						}
					}
				}
				JOINT newVegas:Collar_Back
				{
					OFFSET 0.000000 15.630707 -20.132601
					CHANNELS 3 Xrotation Yrotation Zrotation
					End Site
					{
						OFFSET 0.000000 22.523010 0.000000
					}
				}
				JOINT newVegas:Left_Peck
				{
					OFFSET 17.239599 -5.132599 25.482599
					CHANNELS 3 Xrotation Yrotation Zrotation
					End Site
					{
						OFFSET 0.000000 22.523010 0.000000
					}
				}
				JOINT newVegas:Right_Peck
				{
					OFFSET -17.239599 -5.132202 25.482599
					CHANNELS 3 Xrotation Yrotation Zrotation
					End Site
					{
						OFFSET 0.000000 22.523010 0.000000
					}
				}
				JOINT newVegas:Right_Collar
				{
					OFFSET -18.625099 8.655792 8.828100
					CHANNELS 3 Xrotation Yrotation Zrotation
					JOINT newVegas:Right_Collar1
					{
						OFFSET -14.783401 10.539993 -1.259500
						CHANNELS 3 Xrotation Yrotation Zrotation
						End Site
						{
							OFFSET 0.000000 18.199631 0.000000
						}
					}
				}
			}
		}
		JOINT newVegas:Belly
		{
			OFFSET 0.000000 -6.540398 9.014299
			CHANNELS 3 Xrotation Yrotation Zrotation
			End Site
			{
				OFFSET 0.000000 11.566666 0.000000
			}
		}
	}
	JOINT newVegas:ElvisFacialAnim_Joint
	{
		OFFSET 1.000000 -95.330101 -8.825800
		CHANNELS 3 Xrotation Yrotation Zrotation
		End Site
		{
			OFFSET 0.000000 35.315800 0.000000
		}
	}
}
MOTION
Frames: 4
Frame Time: 0.016667
-4.702096 92.410461 0.417527 -19.787466 -82.300037 -20.874414 -0.000000 -0.000001 -0.000000 -20.567460 13.666780 11.564563 34.172604 -3.163352 5.774910 -11.994727 1.916570 -9.141945 0.000000 0.000000 -0.000000 -0.000001 0.000003 0.000000 -13.637063 -22.495713 -11.043856 26.318462 9.055215 -9.805046 -11.266457 -2.331548 13.523403 0.000000 -0.000000 0.000000 0.000001 -0.000000 -0.000002 2.271228 0.104868 -0.057400 4.588850 0.048045 1.587649 4.566499 0.058996 1.631779 -2.652498 3.607736 -1.809916 -2.652499 3.607721 -1.809919 0.000000 0.000001 -0.000000 -2.652498 3.607734 -1.809917 -2.652428 3.607725 -1.809921 -0.000000 -0.000001 0.000000 0.000000 0.000001 -0.000000 -0.232475 4.637869 -1.359673 25.122283 -77.231251 -42.206201 -0.000006 -14.145785 -0.000012 -51.489886 1.622335 10.545750 -3.708762 -5.344634 -9.285598 10.685372 16.536457 0.020105 0.000000 0.000000 -0.000003 0.013964 0.439247 -3.642316 0.025891 0.597739 -4.959525 0.000002 -0.000000 -0.000002 0.013841 0.437314 -3.626330 0.026065 0.599672 -4.975520 0.000002 0.000001 -0.000000 0.013969 0.439242 -3.642311 0.025882 0.597738 -4.959522 0.000000 -0.000002 0.000000 0.254032 4.486450 -3.142217 0.013189 -3.456761 -5.468403 -0.000000 0.000000 -0.000001 -0.000000 -0.000000 0.000001 -0.000000 -0.000000 0.000001 -0.000001 -0.000000 0.000001 -0.000001 -0.000001 -0.000000 -0.000001 -0.000001 -0.000001 -0.000001 -0.000001 -0.000000 -0.000001 -0.000001 -0.000000 1.612989 4.329181 7.043631 8.595133 25.593737 60.579516 0.000019 32.803660 -0.000015 -7.794420 -23.342740 -5.537488 37.238041 11.415911 9.503660 21.038873 -27.717299 1.484834 0.000000 0.000000 -0.000000 2.191299 -5.070355 46.723521 2.298110 -5.168478 47.920771 -0.000002 -0.000003 -0.000001 2.191292 -5.070346 46.723524 2.298112 -5.168466 47.920785 0.000001 -0.000002 0.000001 2.191282 -5.070333 46.723518 2.298133 -5.168484 47.920785 0.000001 0.000001 -0.000000 2.191295 -5.070374 46.723524 2.298118 -5.168466 47.920775 0.000000 -0.000002 -0.000000 -0.000000 -0.000001 0.000001 -0.000002 -0.000001 0.000002 -0.000000 -0.000001 0.000001 0.000002 0.000001 0.000001 0.000003 0.000001 0.000001 0.000002 0.000001 0.000001 0.000003 0.000001 0.000001 -0.000001 -0.000001 -0.000000 -0.000001 -0.000001 -0.000000 -0.000001 -0.000001 -0.000000 -0.000001 -0.000001 -0.000000 -0.000001 -0.000001 -0.000000 -0.000001 -0.000001 -0.000000 -0.000001 -0.000001 -0.000000 -0.000000 -0.000000 -0.000000 -0.000000 -0.000001 -0.000000 
-4.707518 92.417992 0.414231 -19.904501 -82.291116 -20.987662 -0.000000 -0.000000 -0.000000 -20.531402 13.681816 11.549204 34.138867 -3.162273 5.791427 -11.979165 1.918560 -9.147498 0.000000 0.000000 -0.000000 0.000001 0.000001 -0.000000 -13.594610 -22.511042 -11.040260 26.283912 9.064885 -9.806004 -11.257620 -2.332155 13.524563 0.000000 0.000000 0.000000 -0.000001 0.000000 -0.000000 2.266366 0.095474 -0.055007 4.580604 0.031468 1.605107 4.558147 0.042193 1.649043 -2.636419 3.614592 -1.831801 -2.636408 3.614612 -1.831802 0.000000 0.000000 0.000000 -2.636280 3.614603 -1.831812 -2.636576 3.614585 -1.831790 -0.000000 -0.000000 -0.000000 0.000000 0.000000 -0.000000 -0.234248 4.680282 -1.477822 26.581607 -77.401985 -40.727482 0.000002 -14.148538 -0.000008 -51.846494 1.696107 10.532937 -3.708765 -5.344633 -9.285598 10.685371 16.536451 0.020104 -0.000002 -0.000003 -0.000001 0.013958 0.439248 -3.642313 0.025886 0.597736 -4.959521 0.000004 -0.000001 0.000000 0.013838 0.437316 -3.626332 0.026070 0.599673 -4.975522 -0.000000 0.000000 -0.000000 0.013966 0.439243 -3.642309 0.025881 0.597747 -4.959525 -0.000001 -0.000002 -0.000000 0.254032 4.486452 -3.142214 0.013190 -3.456765 -5.468404 -0.000001 -0.000002 -0.000001 -0.000001 0.000000 0.000001 -0.000001 0.000000 0.000001 -0.000001 0.000000 0.000001 -0.000001 0.000001 0.000000 -0.000001 0.000001 0.000000 -0.000001 0.000001 0.000000 -0.000001 -0.000000 0.000001 1.618817 4.365937 6.951333 8.569717 25.644850 60.639171 0.000007 32.733945 -0.000010 -7.806374 -23.236734 -5.557170 37.238198 11.416034 9.503693 21.038958 -27.717384 1.484874 0.000001 -0.000003 -0.000003 2.191284 -5.070366 46.723518 2.298119 -5.168477 47.920771 -0.000000 0.000000 -0.000000 2.191291 -5.070356 46.723518 2.298115 -5.168456 47.920778 -0.000000 -0.000001 -0.000000 2.191284 -5.070344 46.723528 2.298128 -5.168469 47.920775 0.000000 -0.000003 0.000000 2.191291 -5.070376 46.723521 2.298119 -5.168461 47.920771 0.000000 -0.000002 -0.000000 0.000002 -0.000001 -0.000001 0.000002 -0.000002 -0.000000 0.000002 -0.000001 -0.000001 0.000003 0.000000 -0.000000 0.000003 0.000000 0.000000 0.000003 0.000000 -0.000000 0.000003 -0.000000 0.000000 0.000001 0.000000 0.000000 0.000001 0.000000 0.000000 0.000001 0.000000 0.000000 0.000001 0.000000 0.000000 0.000001 0.000000 0.000000 0.000001 0.000000 0.000000 0.000001 0.000000 0.000000 0.000000 -0.000000 -0.000000 -0.000000 -0.000000 -0.000000 
-4.713207 92.425705 0.411099 -20.020090 -82.281861 -21.104243 0.000000 0.000000 -0.000000 -20.495460 13.681667 11.542084 34.109678 -3.157836 5.799495 -11.967501 1.920005 -9.153867 0.000000 0.000002 -0.000000 0.000001 -0.000001 0.000000 -13.544540 -22.520227 -11.032544 26.240159 9.068953 -9.795812 -11.244573 -2.331694 13.521877 0.000000 0.000000 -0.000000 0.000001 -0.000001 -0.000002 2.259541 0.083607 -0.048128 4.568350 0.010020 1.625758 4.545688 0.020612 1.669545 -2.618795 3.622112 -1.854555 -2.618787 3.622090 -1.854553 0.000000 0.000001 -0.000000 -2.618728 3.622084 -1.854556 -2.618811 3.622112 -1.854553 -0.000000 -0.000001 -0.000000 0.000000 0.000001 -0.000000 -0.236515 4.731588 -1.616345 28.224990 -77.569079 -39.068183 0.000005 -14.159477 -0.000013 -52.203221 1.758377 10.523198 -3.708768 -5.344634 -9.285598 10.685367 16.536457 0.020106 -0.000005 0.000001 -0.000003 0.013959 0.439247 -3.642313 0.025885 0.597739 -4.959524 -0.000001 0.000000 -0.000000 0.013836 0.437314 -3.626332 0.026066 0.599673 -4.975522 -0.000000 0.000002 -0.000000 0.013966 0.439241 -3.642310 0.025883 0.597738 -4.959523 0.000002 0.000001 -0.000000 0.254029 4.486447 -3.142218 0.013187 -3.456760 -5.468401 -0.000001 -0.000003 0.000000 -0.000000 -0.000000 0.000001 -0.000000 -0.000000 0.000001 -0.000001 -0.000000 0.000001 0.000001 0.000000 0.000000 0.000001 0.000000 0.000000 0.000001 0.000000 0.000000 -0.000000 -0.000000 0.000001 1.625856 4.410187 6.848791 8.546705 25.709182 60.700984 0.000006 32.649674 -0.000013 -7.850792 -23.139272 -5.600557 37.238383 11.416140 9.503753 21.039023 -27.717481 1.484837 -0.000002 -0.000002 -0.000001 2.191284 -5.070373 46.723521 2.298126 -5.168471 47.920771 -0.000000 0.000002 -0.000001 2.191285 -5.070353 46.723518 2.298136 -5.168472 47.920785 0.000000 -0.000000 0.000000 2.191290 -5.070350 46.723524 2.298129 -5.168464 47.920771 0.000000 0.000001 0.000001 2.191297 -5.070383 46.723524 2.298121 -5.168456 47.920785 0.000001 0.000003 0.000001 0.000003 -0.000001 0.000000 0.000003 0.000000 0.000002 0.000003 -0.000002 -0.000000 0.000001 0.000001 0.000000 0.000002 0.000001 -0.000000 0.000001 0.000001 0.000000 0.000002 0.000001 -0.000000 0.000001 0.000000 -0.000000 0.000001 0.000000 -0.000000 0.000001 0.000000 -0.000000 0.000001 0.000000 -0.000000 0.000001 0.000000 -0.000000 0.000001 0.000000 -0.000000 0.000001 0.000000 -0.000000 -0.000000 -0.000000 -0.000000 0.000000 0.000000 -0.000000 
-4.718651 92.433609 0.408587 -20.124893 -82.271077 -21.214410 -0.000000 -0.000000 0.000000 -20.461290 13.666663 11.540456 34.084809 -3.150547 5.801907 -11.958538 1.920801 -9.161220 -0.000000 0.000000 -0.000000 -0.000001 0.000000 0.000002 -13.488187 -22.524746 -11.022304 26.187362 9.067815 -9.774074 -11.227351 -2.330322 13.515476 0.000000 -0.000000 0.000000 0.000001 -0.000001 -0.000001 2.251668 0.069848 -0.036140 4.553621 -0.015310 1.649033 4.530656 -0.004754 1.692760 -2.600627 3.630135 -1.877886 -2.600631 3.630123 -1.877886 -0.000000 -0.000001 -0.000000 -2.600624 3.630095 -1.877884 -2.600556 3.630150 -1.877894 0.000000 0.000001 0.000000 -0.000000 -0.000001 -0.000000 -0.239165 4.791736 -1.775043 30.042614 -77.727191 -37.237273 -0.000003 -14.178589 0.000016 -52.563760 1.800044 10.528897 -3.708770 -5.344633 -9.285598 10.685374 16.536453 0.020102 -0.000001 0.000003 -0.000003 0.013959 0.439247 -3.642314 0.025888 0.597737 -4.959524 -0.000002 0.000000 -0.000000 0.013837 0.437316 -3.626330 0.026069 0.599672 -4.975522 -0.000001 -0.000002 0.000000 0.013966 0.439245 -3.642314 0.025882 0.597743 -4.959522 0.000002 -0.000002 0.000000 0.254031 4.486449 -3.142213 0.013187 -3.456759 -5.468400 0.000002 -0.000003 0.000001 0.000001 -0.000001 0.000001 0.000001 -0.000001 0.000001 0.000000 -0.000000 0.000001 -0.000000 -0.000002 0.000001 -0.000000 -0.000002 0.000001 -0.000000 -0.000002 0.000001 0.000000 -0.000002 0.000001 1.633870 4.460068 6.738922 8.526313 25.781070 60.764792 0.000020 32.555267 -0.000026 -7.926603 -23.053075 -5.669093 37.238526 11.416258 9.503804 21.039115 -27.717575 1.484861 -0.000001 0.000000 0.000003 2.191268 -5.070356 46.723497 2.298118 -5.168474 47.920781 0.000000 -0.000003 -0.000001 2.191268 -5.070338 46.723487 2.298123 -5.168469 47.920778 0.000000 0.000003 0.000002 2.191266 -5.070332 46.723500 2.298129 -5.168467 47.920771 0.000000 0.000002 0.000000 2.191268 -5.070368 46.723494 2.298117 -5.168459 47.920771 0.000000 -0.000000 -0.000000 0.000002 0.000002 -0.000001 0.000006 -0.000000 -0.000002 0.000002 0.000002 -0.000002 0.000001 0.000001 0.000001 0.000001 0.000001 0.000001 0.000001 0.000001 0.000001 0.000001 0.000001 0.000001 0.000001 -0.000000 0.000000 0.000001 -0.000000 0.000000 0.000001 -0.000000 0.000000 0.000001 -0.000000 0.000000 0.000001 -0.000000 0.000000 0.000001 -0.000000 0.000000 0.000001 -0.000000 0.000000 0.000000 0.000000 0.000000 -0.000000 -0.000000 0.000000 
